<svg id="Capa_1" data-name="Capa 1" xmlns="http://www.w3.org/2000/svg" viewBox="0 0 453.07 89.68"><defs><style>.cls-1{fill:#fff;}</style></defs><path class="cls-1" d="M539.1,341.53l-14,38.39a3.76,3.76,0,0,1-3.24,2.37h-12.1a1.6,1.6,0,0,1-1.51-2.37l11.34-31.17a1.6,1.6,0,0,0-1.51-2.37H506a3.73,3.73,0,0,0-3.23,2.37l-11.35,31.17a3.76,3.76,0,0,1-3.24,2.37h-12.1a1.6,1.6,0,0,1-1.51-2.37l5.57-15.31a1.61,1.61,0,0,0-1.51-2.38h-12.1a3.75,3.75,0,0,0-3.24,2.38l-6.67,18.32a1.6,1.6,0,0,0,1.51,2.37h12.1a1.61,1.61,0,0,1,1.51,2.38l-7.61,20.93a1.61,1.61,0,0,0,1.51,2.38h12.1a3.77,3.77,0,0,0,3.24-2.38l7.62-20.93a3.77,3.77,0,0,1,3.24-2.38h12.1a1.61,1.61,0,0,1,1.51,2.38l-14.12,38.79a1.61,1.61,0,0,0,1.51,2.37H505a3.76,3.76,0,0,0,3.24-2.37l14.11-38.79a3.77,3.77,0,0,1,3.24-2.38h12.11a3.76,3.76,0,0,0,3.24-2.37L556,341.53a1.6,1.6,0,0,0-1.51-2.37h-12.1A3.76,3.76,0,0,0,539.1,341.53Z" transform="translate(-456.47 -339.16)"/><path class="cls-1" d="M587.3,354.76h11.39v38.55q0,5,.87,7.05a7.07,7.07,0,0,0,2.88,3.3,9.07,9.07,0,0,0,4.84,1.23,9.52,9.52,0,0,0,5.17-1.37,7.33,7.33,0,0,0,3-3.51q.82-2.11.83-8.12V354.76h11.39V390.3q0,9-1,12.48a17.51,17.51,0,0,1-3.87,6.73,18,18,0,0,1-6.58,4.8,22.38,22.38,0,0,1-8.68,1.56,21,21,0,0,1-11.28-3,17.29,17.29,0,0,1-6.87-7.46Q587.3,401,587.3,390.3Z" transform="translate(-456.47 -339.16)"/><path class="cls-1" d="M638.41,353.26h11.06v61.11H638.41Z" transform="translate(-456.47 -339.16)"/><path class="cls-1" d="M659.44,370.28H670.5v5.07a18.8,18.8,0,0,1,6.31-4.66,18.35,18.35,0,0,1,7.56-1.54,14.09,14.09,0,0,1,7.47,2,14.7,14.7,0,0,1,5.35,5.92,17.89,17.89,0,0,1,6.47-5.92,17.61,17.61,0,0,1,8.37-2,15.51,15.51,0,0,1,8.28,2.19,12.64,12.64,0,0,1,5.13,5.71q1.56,3.52,1.56,11.47v25.85H715.85V392q0-7.49-1.86-10.15a6.38,6.38,0,0,0-5.59-2.65,8.48,8.48,0,0,0-5.09,1.62A9.55,9.55,0,0,0,700,385.3q-1.1,2.85-1.1,9.18v19.89H687.73V393a29.69,29.69,0,0,0-.88-8.57,7.75,7.75,0,0,0-2.62-4A6.89,6.89,0,0,0,680,379.2a8.29,8.29,0,0,0-5,1.64,9.77,9.77,0,0,0-3.37,4.6c-.74,2-1.12,5.08-1.12,9.32v19.61H659.44Z" transform="translate(-456.47 -339.16)"/><path class="cls-1" d="M756.42,353.26v5.55a14.06,14.06,0,0,0-5.35-1.34,5.23,5.23,0,0,0-2.75.67,3,3,0,0,0-1.38,1.54,21.09,21.09,0,0,0-.29,4.64v6h9.2v4.91h-9.21l0,39.18h-5.67V375.19h-5.8v-4.91h5.8v-6.89a18.78,18.78,0,0,1,.87-6.77,7,7,0,0,1,3-3.26,9.75,9.75,0,0,1,5-1.23A23.84,23.84,0,0,1,756.42,353.26Z" transform="translate(-456.47 -339.16)"/><path class="cls-1" d="M785.2,369.15a21.84,21.84,0,0,1,16.88,7.37,23.68,23.68,0,0,1-.34,32.08,21.59,21.59,0,0,1-16.54,6.91q-10.16,0-16.59-6.91a23.63,23.63,0,0,1-.34-32A21.82,21.82,0,0,1,785.2,369.15Zm0,5.55A16.37,16.37,0,0,0,773,379.93a17.5,17.5,0,0,0-5.08,12.64,17.91,17.91,0,0,0,2.32,8.92,16.41,16.41,0,0,0,6.26,6.38,17.81,17.81,0,0,0,17.33,0,16.48,16.48,0,0,0,6.26-6.38,17.91,17.91,0,0,0,2.32-8.92,17.4,17.4,0,0,0-5.11-12.64A16.35,16.35,0,0,0,785.18,374.7Z" transform="translate(-456.47 -339.16)"/><path class="cls-1" d="M816.52,370.28h5.8v6.45a20.41,20.41,0,0,1,5.47-5.7,10.77,10.77,0,0,1,6-1.88,10.34,10.34,0,0,1,5,1.5l-3,4.78a7.88,7.88,0,0,0-3-.77,8.23,8.23,0,0,0-5.48,2.33,14.76,14.76,0,0,0-4,7.23q-1.05,3.78-1,15.24v14.91h-5.8Z" transform="translate(-456.47 -339.16)"/><path class="cls-1" d="M843.6,370.28h5.67v7.62a22,22,0,0,1,6.08-6.16,17.27,17.27,0,0,1,9-2.59,15.19,15.19,0,0,1,6.09,1.25,13.19,13.19,0,0,1,4.71,3.35,18,18,0,0,1,3.16,6,21.06,21.06,0,0,1,7.08-7.88,16.77,16.77,0,0,1,9.13-2.69,14.3,14.3,0,0,1,8.07,2.31,13.81,13.81,0,0,1,5.2,6.44q1.7,4.14,1.69,12.4v24.07h-5.79V390.3q0-7.1-1-9.75a8.85,8.85,0,0,0-3.46-4.27,10.3,10.3,0,0,0-5.83-1.62,12.72,12.72,0,0,0-7.54,2.43,14,14,0,0,0-5,6.48q-1.57,4.06-1.58,13.54v17.26h-5.67V391.8q0-8-1-10.84a9.08,9.08,0,0,0-3.46-4.58,10,10,0,0,0-5.88-1.72A12.66,12.66,0,0,0,856,377a14.05,14.05,0,0,0-5.07,6.38q-1.63,4-1.64,12.28v18.68H843.6Z" transform="translate(-456.47 -339.16)"/></svg>